<svg width="200" height="200" viewBox="-20 -20 240 240" fill="none" xmlns="http://www.w3.org/2000/svg">
<circle cx="100" cy="100" r="118" fill="white"/>
<path d="M97.0938 0.00450468C97.9995 0.00825107 98.905 0.00452569 99.8106 4.95526e-05C105.547 -0.00557628 111.152 0.467117 116.757 1.78484C117.365 1.92471 117.365 1.92471 117.985 2.0674C120.987 2.77257 123.906 3.59162 126.809 4.65806C127.084 4.75656 127.36 4.85506 127.644 4.95655C138.767 8.9397 148.762 14.4441 157.893 22.2044C158.085 22.3649 158.278 22.5254 158.476 22.6907C161.357 25.1013 163.995 27.7656 166.614 30.4731C166.779 30.6425 166.944 30.8119 167.114 30.9863C169.376 33.3171 171.466 35.7423 173.435 38.3471C173.622 38.5927 173.809 38.8384 174.002 39.0915C176.278 42.1082 178.332 45.2028 180.152 48.5359C180.545 49.2531 180.947 49.9645 181.35 50.6761C185.608 58.3048 188.836 66.5798 190.666 75.1944C190.725 75.4654 190.783 75.7363 190.843 76.0155C192.256 82.6634 192.818 89.0953 192.694 95.8991C192.938 95.8828 193.183 95.8665 193.435 95.8498C195.511 95.7693 196.841 95.7657 198.437 97.3028C199.422 98.4606 199.887 99.3964 200 100.922C199.764 104.503 196.556 107.098 194.235 109.432C191.419 112.286 191.419 112.286 188.8 115.333C187.457 116.865 185.84 117.689 183.846 117.81C181.044 117.75 179.03 115.154 177.157 113.206C176.946 112.988 176.736 112.771 176.519 112.548C176.079 112.092 175.639 111.636 175.201 111.179C174.533 110.484 173.861 109.794 173.188 109.105C172.758 108.659 172.328 108.213 171.899 107.766C171.7 107.563 171.501 107.36 171.296 107.15C169.901 105.685 168.626 104.138 168.187 102.073C168.216 100.081 168.563 98.9131 169.718 97.3028C171.55 95.8278 173.143 95.2754 175.462 95.5482C175.917 95.7734 176.368 96.0064 176.814 96.25C175.719 77.0151 170.164 57.3363 156.43 43.5232C155.528 42.5582 155.528 42.5582 155.528 41.8563C155.333 41.7767 155.137 41.6971 154.936 41.6151C153.975 41.0326 153.522 40.305 152.825 39.3998C151.964 38.5319 151.042 37.7425 150.122 36.9433C149.942 36.784 149.763 36.6247 149.578 36.4605C137.731 25.9595 123.307 19.2125 107.888 16.9405C107.646 16.9041 107.405 16.8676 107.156 16.8301C104.389 16.4782 101.597 16.5243 98.8142 16.5246C97.9321 16.5238 97.0501 16.5174 96.168 16.5108C91.2361 16.4933 86.3494 16.8109 81.5339 17.9933C81.1264 18.0908 81.1264 18.0908 80.7107 18.1903C75.2586 19.5234 70.1155 21.2977 64.9782 23.6081C64.7407 23.7149 64.5031 23.8216 64.2583 23.9316C56.352 27.5305 49.6519 32.7024 43.1928 38.5876C42.6682 39.0584 42.1343 39.5154 41.5978 39.9715C40.8531 40.6263 40.2217 41.2406 39.5957 42.0099C38.8671 42.901 38.1369 43.7887 37.3889 44.6624C33.34 49.4258 29.7796 54.554 26.7988 60.1045C26.6626 60.3563 26.5264 60.608 26.386 60.8674C22.259 68.5574 19.4596 76.6198 17.7607 85.2397C17.6936 85.5779 17.6264 85.9161 17.5572 86.2646C16.5655 91.5652 16.186 96.8674 16.1981 102.26C16.198 102.544 16.198 102.828 16.198 103.12C16.2098 108.983 16.7544 114.683 17.6763 120.464C17.7232 120.769 17.7701 121.074 17.8185 121.388C20.4352 137.66 28.772 151.692 38.9622 163.979C40.6556 162.507 42.2393 160.969 43.79 159.337C44.0152 159.102 44.2403 158.867 44.4722 158.625C45.1845 157.881 45.8956 157.136 46.6065 156.39C47.5461 155.405 48.4868 154.421 49.4282 153.437C49.6412 153.213 49.8542 152.989 50.0736 152.758C50.9402 151.853 59.1574 143.06 60.119 142.262C60.9285 141.651 53.5615 149.595 54.1664 148.538C54.3894 148.538 54.462 148.175 54.6917 148.175C54.6917 147.943 54.8421 148.075 54.8421 147.836C55.7927 146.739 56.8987 145.212 58.1556 144.559C58.2671 144.212 56.5476 145.833 58.2208 144.327C58.4438 144.327 58.8591 143.534 59.0888 143.534C59.1796 143.325 59.1262 143.602 59.2197 143.388C59.6222 142.612 59.9785 142.416 60.578 141.798C60.7755 141.593 60.9729 141.389 61.1764 141.178C61.3857 140.965 61.595 140.752 61.8107 140.533C62.0248 140.313 62.2389 140.092 62.4596 139.866C63.7326 138.565 65.0316 137.313 66.3918 136.11C68.6236 134.2 68.6236 134.2 70.0463 131.694C69.6502 131.698 69.2541 131.701 68.8459 131.705C65.1077 131.741 61.3696 131.767 57.6313 131.785C55.7095 131.794 53.7878 131.806 51.8661 131.826C50.0105 131.845 48.1551 131.856 46.2995 131.86C45.5925 131.863 44.8856 131.87 44.1787 131.879C43.1863 131.892 42.1944 131.894 41.2019 131.893C40.9114 131.899 40.621 131.905 40.3218 131.912C37.7256 131.889 36.1912 130.793 34.2742 129.062C32.9274 127.416 32.7086 125.941 32.7511 123.821C33.025 121.914 34.0742 120.614 35.3723 119.302C37.9994 117.547 40.0154 117.541 43.0956 117.65C43.5477 117.661 43.9998 117.673 44.4519 117.683C45.4233 117.706 46.3947 117.732 47.366 117.759C48.9112 117.8 50.4564 117.825 52.002 117.844C52.2641 117.848 52.5262 117.851 52.7962 117.855C53.6033 117.865 54.4104 117.875 55.2176 117.885C58.5407 117.926 61.8621 117.979 65.1839 118.086C68.3907 118.187 71.5958 118.245 74.8042 118.236C75.0611 118.236 75.3179 118.235 75.5826 118.234C83.7813 118.211 83.7812 118.211 90.6918 114.028C92.4793 112.047 93.8794 109.909 95.0488 107.48C94.7161 107.483 94.3835 107.486 94.0408 107.489C90.8993 107.518 87.7578 107.539 84.6161 107.552C83.0011 107.56 81.3862 107.57 79.7713 107.586C78.2115 107.601 76.6518 107.609 75.0919 107.613C74.4982 107.615 73.9044 107.621 73.3106 107.628C72.476 107.638 71.6418 107.64 70.8072 107.639C70.5641 107.644 70.3211 107.649 70.0707 107.654C68.0605 107.638 66.2967 107.014 64.7979 105.58C63.1469 103.63 62.7874 101.834 62.8494 99.3083C63.0379 97.5408 63.6385 96.5157 64.9071 95.3377C67.0795 93.6705 68.8203 93.5009 71.4724 93.5545C71.8749 93.5542 72.2774 93.5539 72.6921 93.5536C73.7867 93.5548 74.8807 93.5653 75.9752 93.5801C77.1224 93.5933 78.2695 93.5945 79.4167 93.5969C81.5849 93.6035 83.753 93.6207 85.9211 93.6419C88.3912 93.6655 90.8613 93.677 93.3315 93.6876C98.409 93.7095 103.486 93.7465 108.564 93.7935C108.425 93.4157 108.286 93.0379 108.142 92.6486C107.958 92.1438 107.774 91.639 107.59 91.1342C107.453 90.7623 107.453 90.7622 107.313 90.3828C106.392 87.8541 105.523 85.2877 105.523 82.5639C105.233 82.5655 104.943 82.5671 104.644 82.5688C97.5826 82.6075 90.5214 82.6366 83.4601 82.6548C80.0453 82.6638 76.6306 82.6761 73.2158 82.6962C70.2391 82.7137 67.2624 82.7251 64.2857 82.729C62.7099 82.7312 61.1342 82.7366 59.5584 82.7494C58.0741 82.7613 56.59 82.765 55.1057 82.7623C54.562 82.7628 54.0183 82.7663 53.4746 82.773C48.1418 82.8359 48.1418 82.8359 46.0575 80.8092C44.3113 78.9001 43.8307 77.0274 43.8811 74.4418C44.1332 72.748 44.8923 71.4774 46.0575 70.2814C47.759 69.1123 48.8293 68.7026 50.9132 68.7089C51.1525 68.7077 51.3919 68.7065 51.6384 68.7053C52.4343 68.703 53.2299 68.7107 54.0257 68.7184C54.5986 68.7188 55.1715 68.7185 55.7444 68.7177C57.2954 68.7173 58.8463 68.7256 60.3972 68.7354C62.0197 68.7442 63.6421 68.745 65.2646 68.7467C68.335 68.751 71.4054 68.7625 74.4758 68.7766C77.9721 68.7923 81.4685 68.8 84.9649 68.8071C92.1554 68.8217 99.3459 68.8464 106.536 68.8777C106.581 68.6608 106.626 68.4438 106.672 68.2203C106.731 67.9358 106.791 67.6513 106.852 67.3581C106.911 67.076 106.969 66.7939 107.03 66.5033C108.421 60.5195 113.756 55.1452 118.643 51.9994C125.569 47.7499 133.561 46.7429 141.339 48.6826C146.194 50.0686 150.283 52.9707 153.838 56.5953C154.071 56.8282 154.304 57.0612 154.543 57.3012C157.963 60.9869 159.996 65.7493 161.271 70.6324C161.354 70.9386 161.437 71.2449 161.522 71.5604C163.084 78.6167 161.865 86.5753 158.467 92.8504C157.97 93.6642 157.44 94.4295 156.879 95.1973C156.636 95.5338 156.392 95.8704 156.141 96.2171C151.481 102.351 144.669 105.914 137.263 107.034C135.579 107.194 133.903 107.185 132.215 107.129C133.381 108.341 134.549 109.552 135.718 110.762C137.472 112.578 139.225 114.395 140.977 116.212C142.035 117.308 143.093 118.405 144.151 119.5C145.179 120.564 146.206 121.629 147.233 122.694C147.623 123.098 148.013 123.502 148.404 123.906C148.95 124.471 149.495 125.037 150.041 125.604C150.351 125.925 150.661 126.246 150.98 126.577C151.762 127.429 152.461 128.314 153.163 129.237C153.843 129.878 154.545 130.478 155.256 131.081C155.866 131.694 157.977 133.768 158.333 134.524C158.623 135.298 156.512 133.224 157.555 133.448C158.132 134.018 158.695 134.604 159.244 135.203C159.446 135.398 159.648 135.594 159.857 135.795C160.258 136.256 177.381 153.465 177.381 154.167C177.651 154.277 160.528 137.068 160.804 137.181C161.926 137.848 162.773 138.764 163.679 139.707C163.883 139.917 164.087 140.126 164.297 140.342C164.972 141.036 165.643 141.732 166.314 142.428C166.784 142.914 167.254 143.399 167.723 143.885C168.709 144.904 169.693 145.925 170.676 146.946C171.929 148.247 173.186 149.544 174.445 150.839C175.418 151.842 176.387 152.847 177.356 153.854C177.817 154.332 178.28 154.81 178.744 155.287C184.312 161.01 187.658 166.874 187.71 175.209C187.667 181.314 185.975 186.21 182.219 191C182.011 191.278 181.803 191.556 181.589 191.842C177.78 196.651 172.155 198.92 166.34 199.774C161.613 200.204 157.342 199.22 153.099 197.12C152.899 197.024 152.699 196.928 152.493 196.829C147.854 194.366 144.105 189.755 140.486 185.961C139.961 185.414 139.436 184.867 138.911 184.32C137.54 182.891 136.171 181.461 134.803 180.03C132.608 177.736 130.411 175.444 128.213 173.152C127.451 172.357 126.69 171.561 125.93 170.764C125.459 170.273 124.988 169.782 124.518 169.291C124.31 169.073 124.102 168.855 123.888 168.63C122.442 167.124 120.928 165.717 119.375 164.33C117.897 162.97 117.897 162.97 117.235 162.359C116.043 161.33 114.861 161.434 113.378 161.413C113.14 161.403 112.903 161.392 112.658 161.382C110.478 161.355 109.363 162.14 107.817 163.66C106.943 164.553 106.083 165.458 105.227 166.37C104.645 166.987 104.061 167.603 103.477 168.219C103.221 168.491 102.965 168.763 102.701 169.044C101.986 169.764 101.262 170.442 100.509 171.118C99.1342 172.356 97.8471 173.667 96.5692 175.011C96.3394 175.251 96.1097 175.491 95.873 175.738C95.1469 176.497 94.422 177.256 93.6973 178.016C92.741 179.019 91.7835 180.02 90.8254 181.021C90.6113 181.246 90.3972 181.471 90.1767 181.703C88.8986 183.038 87.5769 184.294 86.2053 185.524C85.4039 186.256 84.6573 187.033 83.9149 187.828C75.8742 196.367 75.8742 196.367 70.3842 198.37C70.1006 198.477 69.8171 198.585 69.525 198.696C63.4816 200.904 56.9015 200.164 51.1136 197.557C47.5243 195.674 44.3502 192.901 41.5991 189.882C40.966 189.179 40.966 189.179 39.9758 188.544C39.9758 188.312 39.9758 188.081 39.9758 187.842C39.7812 187.754 39.5867 187.666 39.3862 187.576C38.5208 187.081 37.9412 186.516 37.2451 185.789C36.9857 185.518 36.7264 185.248 36.4591 184.97C36.1911 184.687 35.923 184.405 35.6468 184.113C35.3826 183.839 35.1185 183.564 34.8463 183.281C33.4215 181.79 32.0594 180.266 30.7398 178.674C29.8272 177.606 28.8401 176.62 27.8546 175.625C26.1662 173.895 24.5991 172.126 23.1284 170.189C22.3563 169.177 21.5486 168.204 20.7382 167.225C18.1324 163.975 15.9898 160.419 13.9175 156.785C13.792 156.565 13.6666 156.345 13.5374 156.118C11.1753 151.907 9.09392 147.644 7.35009 143.121C7.25598 142.878 7.16187 142.635 7.06492 142.385C4.67012 136.181 2.94723 129.936 1.69075 123.381C1.60867 122.957 1.5266 122.532 1.44204 122.094C0.250867 115.533 -0.0223848 108.968 0.00138973 102.304C0.00211789 101.934 0.00284605 101.565 0.00359628 101.184C0.0208137 95.7326 0.12948 90.3903 1.12059 85.0204C1.18951 84.6437 1.25844 84.2671 1.32945 83.879C4.37574 67.7343 10.5119 52.1208 20.7171 39.3998C20.8699 39.2074 21.0228 39.0149 21.1802 38.8166C26.229 32.4651 31.6303 26.146 38.0393 21.2493C38.6415 20.7875 39.2362 20.3165 39.8306 19.8439C43.0052 17.3431 46.3325 15.1615 49.774 13.0803C50.0447 12.9155 50.3153 12.7506 50.5941 12.5808C54.6877 10.1051 58.8342 8.08414 63.2889 6.41269C63.5421 6.31741 63.7954 6.22213 64.0564 6.12397C65.8143 5.47168 67.5857 4.87495 69.3706 4.30713C69.6498 4.21756 69.9291 4.12799 70.2169 4.03571C74.9071 2.55541 79.6084 1.62007 84.4659 0.953104C85.2486 0.844854 86.0303 0.728869 86.8112 0.606975C90.2472 0.100357 93.6254 -0.0124755 97.0938 0.00450468Z" fill="black"/>
<path d="M119.736 117.322C121.875 118.639 123.666 120.11 125.416 121.914C125.656 122.157 125.896 122.399 126.143 122.65C126.927 123.444 127.707 124.243 128.487 125.041C129.036 125.599 129.585 126.157 130.134 126.714C131.575 128.177 133.013 129.642 134.45 131.109C136.751 133.455 139.056 135.797 141.361 138.139C142.162 138.954 142.961 139.77 143.761 140.586C144.256 141.09 144.751 141.594 145.246 142.097C145.465 142.322 145.683 142.546 145.909 142.777C147.189 144.077 148.512 145.301 149.885 146.5C150.862 147.367 151.789 148.282 152.713 149.207C152.912 149.404 153.11 149.601 153.315 149.804C153.961 150.448 154.606 151.092 155.25 151.737C155.473 151.96 155.695 152.182 155.924 152.411C157.099 153.588 158.272 154.765 159.444 155.944C160.409 156.913 161.377 157.88 162.348 158.844C163.527 160.016 164.701 161.192 165.872 162.373C166.316 162.819 166.762 163.263 167.21 163.706C169.878 166.346 171.965 168.513 172.625 172.364C172.589 175.297 171.8 177.836 169.705 179.954C167.125 181.677 164.577 182.358 161.491 182.03C158.636 181.293 156.852 179.704 154.837 177.609C154.535 177.303 154.232 176.997 153.92 176.681C153.098 175.848 152.281 175.01 151.466 174.17C150.61 173.289 149.747 172.415 148.885 171.54C147.255 169.884 145.631 168.223 144.009 166.561C141.625 164.118 139.233 161.683 136.842 159.248C136.489 158.888 136.135 158.529 135.782 158.169C135.61 157.994 135.438 157.818 135.26 157.637C134.237 156.595 133.215 155.551 132.194 154.506C131.713 154.013 131.231 153.521 130.749 153.028C130.162 152.428 129.576 151.827 128.99 151.226C128.731 150.962 128.473 150.698 128.207 150.426C127.982 150.196 127.758 149.967 127.527 149.73C126.889 149.092 126.889 149.092 125.897 148.465C125.897 148.236 125.897 148.008 125.897 147.773C125.618 147.633 125.618 147.633 125.333 147.49C124.758 147.198 124.186 146.899 123.616 146.595C123.282 146.42 122.947 146.245 122.603 146.064C122.274 145.89 121.945 145.715 121.605 145.536C118.47 144.13 115.694 143.794 112.271 143.815C111.867 143.808 111.462 143.801 111.046 143.794C106.315 143.797 102.088 145.145 98.5316 148.382C98.1512 148.769 97.777 149.161 97.4108 149.561C96.8332 150.166 96.2362 150.703 95.6011 151.245C93.9308 152.711 92.3759 154.288 90.8194 155.875C90.2903 156.415 89.7599 156.953 89.2294 157.491C88.1031 158.634 86.9783 159.778 85.8536 160.922C84.5485 162.25 83.2428 163.577 81.9356 164.903C81.4178 165.428 80.901 165.955 80.3843 166.482C78.8042 168.088 77.2038 169.644 75.502 171.118C74.5944 171.921 73.7631 172.78 72.9216 173.654C72.5672 174.018 72.2127 174.382 71.8581 174.746C71.3134 175.308 70.7695 175.87 70.2273 176.434C69.6946 176.988 69.1586 177.538 68.6221 178.087C68.1509 178.575 68.1509 178.575 67.6701 179.073C65.1365 181.345 62.3494 182.214 58.995 182.141C56.8807 181.87 54.8199 180.8 53.3398 179.262C51.5837 176.533 50.9405 174.221 51.2863 170.957C52.2823 167.011 56.1847 164.042 59.1193 161.488C60.6929 160.107 62.1472 158.617 63.6073 157.116C66.4905 154.151 66.4905 154.151 67.9924 152.855C69.945 151.158 71.7252 149.278 73.5326 147.427C74.2446 146.697 74.9578 145.97 75.6717 145.242C75.984 144.922 76.2964 144.603 76.6182 144.273C77.3665 143.525 78.1448 142.824 78.9424 142.13C80.5032 140.762 81.9536 139.296 83.4057 137.812C83.6849 137.528 83.964 137.245 84.2515 136.953C85.1358 136.055 86.0189 135.155 86.9018 134.256C88.067 133.068 89.2334 131.882 90.4005 130.697C90.7958 130.293 90.7958 130.293 91.1991 129.881C92.5132 128.546 93.8426 127.262 95.2754 126.058C96.2522 125.221 97.1261 124.281 98.0106 123.346C103.77 117.268 111.392 112.807 119.736 117.322Z" fill="#FFDE31"/>
<path d="M144.013 62.3311C147.742 65.0213 150.143 68.419 151.038 72.9452C151.581 78.0024 150.744 82.3845 147.69 86.5764C144.649 90.1285 140.698 92.418 135.967 92.821C131.08 93.0533 127.303 92.1259 123.498 88.9111C119.807 85.3366 117.993 81.7136 117.859 76.5601C117.984 71.7523 119.655 67.6963 122.994 64.184C128.983 58.6185 137.084 58.0796 144.013 62.3311Z" fill="#FFDE31"/>
</svg>
